<?xml version="1.0" encoding="utf-8"?>
<!-- Generator: Adobe Illustrator 19.0.0, SVG Export Plug-In . SVG Version: 6.00 Build 0)  -->
<svg version="1.1" id="Laag_1" xmlns="http://www.w3.org/2000/svg" xmlns:xlink="http://www.w3.org/1999/xlink" x="0px" y="0px"
	 viewBox="0 0 566.9 566.9" style="enable-background:new 0 0 566.9 566.9;" xml:space="preserve">
<style type="text/css">
	.st0{fill:#3970B7;}
	.st1{clip-path:url(#SVGID_2_);fill:#3970B7;}
	.st2{clip-path:url(#SVGID_2_);fill:#A02F29;}
</style>
<polygon class="st0" points="112.3,389 103,389 103,381 130.5,381 130.5,389 121.2,389 121.2,437.5 112.3,437.5 "/>
<polygon class="st0" points="134.7,381 159,381 159,389 143.6,389 143.6,404 155.8,404 155.8,412.1 143.6,412.1 143.6,429.4 
	159,429.4 159,437.5 134.7,437.5 "/>
<polygon class="st0" points="164.1,381 175.2,381 183.9,414.8 184,414.8 184,381 192,381 192,437.5 182.8,437.5 172.2,396.2 
	172,396.2 172,437.5 164.1,437.5 "/>
<polygon class="st0" points="198.6,381 222.8,381 222.8,389 207.5,389 207.5,404 219.7,404 219.7,412.1 207.5,412.1 207.5,429.4 
	222.8,429.4 222.8,437.5 198.6,437.5 "/>
<g>
	<defs>
		<rect id="SVGID_1_" width="566.9" height="566.9"/>
	</defs>
	<clipPath id="SVGID_2_">
		<use xlink:href="#SVGID_1_"  style="overflow:visible;"/>
	</clipPath>
	<path class="st1" d="M227.9,381h13.2c4.6,0,7.9,1.1,10,3.2c2.1,2.1,3.2,5.4,3.2,9.8v3.5c0,5.9-1.9,9.6-5.8,11.2v0.2
		c2.2,0.6,3.7,2,4.6,4c0.9,2,1.3,4.7,1.3,8v9.9c0,1.6,0.1,2.9,0.2,3.9c0.1,1,0.4,2,0.8,2.9h-9c-0.3-0.9-0.5-1.8-0.6-2.6
		c-0.1-0.8-0.2-2.3-0.2-4.4v-10.3c0-2.6-0.4-4.4-1.3-5.4c-0.8-1-2.3-1.5-4.3-1.5h-3.1v24.2h-8.9V381z M240,405.2
		c1.8,0,3.1-0.5,4-1.4c0.9-0.9,1.3-2.5,1.3-4.6v-4.4c0-2-0.4-3.5-1.1-4.4c-0.7-0.9-1.9-1.4-3.4-1.4h-4v16.2H240z"/>
	<path class="st1" d="M267.3,381h12l9.2,56.6h-8.9l-1.6-11.2v0.2H268l-1.6,11.1h-8.2L267.3,381z M277,418.8l-4-28h-0.2l-3.9,28H277z
		"/>
	<polygon class="st1" points="292.9,381 305.6,381 311.2,421.4 311.4,421.4 317,381 329.7,381 329.7,437.5 321.3,437.5 321.3,394.7 
		321.2,394.7 314.7,437.5 307.3,437.5 300.8,394.7 300.6,394.7 300.6,437.5 292.9,437.5 	"/>
	<path class="st1" d="M339.2,434.6c-2.3-2.5-3.5-6-3.5-10.5v-29.7c0-4.5,1.2-8,3.5-10.5c2.3-2.5,5.7-3.7,10-3.7s7.7,1.2,10,3.7
		c2.3,2.5,3.5,6,3.5,10.5v29.7c0,4.5-1.2,8-3.5,10.5c-2.3,2.5-5.7,3.7-10,3.7S341.5,437.1,339.2,434.6 M353.8,424.7v-30.9
		c0-3.7-1.5-5.6-4.6-5.6c-3.1,0-4.6,1.9-4.6,5.6v30.9c0,3.7,1.5,5.6,4.6,5.6C352.3,430.2,353.8,428.4,353.8,424.7"/>
	<polygon class="st1" points="368.7,381 379.8,381 388.5,414.8 388.6,414.8 388.6,381 396.6,381 396.6,437.5 387.4,437.5 
		376.8,396.2 376.6,396.2 376.6,437.5 368.7,437.5 	"/>
	<path class="st1" d="M403.2,381h13.6c4.4,0,7.7,1.2,9.9,3.6c2.2,2.4,3.3,5.8,3.3,10.4v28.6c0,4.6-1.1,8.1-3.3,10.4
		c-2.2,2.4-5.5,3.6-9.9,3.6h-13.6V381z M416.6,429.4c1.5,0,2.6-0.4,3.4-1.3c0.8-0.9,1.2-2.3,1.2-4.2v-29.4c0-1.9-0.4-3.3-1.2-4.2
		c-0.8-0.9-1.9-1.3-3.4-1.3h-4.5v40.4H416.6z"/>
	<path class="st1" d="M442.7,381h12l9.2,56.6h-8.9l-1.6-11.2v0.2h-10.1l-1.6,11.1h-8.2L442.7,381z M452.4,418.8l-4-28h-0.2l-3.9,28
		H452.4z"/>
	<path class="st2" d="M413.1,315.4c-0.7-3.1-3-7.4-3-7.4s1.8,4.8-0.1,8.3c-2,3.4-13.9,4-13.9,4s7.3-1.7,9.9-5.8
		c2.5-4.1,2.1-6.4,2.1-6.4s-3.6,4.1-11.4,5.6c-7.8,1.5-16.3,2.5-20.8,2.3l-4.5-0.2c0,0,10.2-1.1,15.4-3.2c5.2-2.1,5.6-2.5,5.6-2.5
		s-8.8-3.1-17.8-1.4c-9,1.7-19.8,5.9-30.9,9c-11.1,3.1-30.5,6.4-33.7,6.4c-3.2,0-2-1.9-2-1.9s-5.3,2.5-8.4,5.9
		c-3.1,3.4-10.3,11.5-10.3,11.5s7.7-5.7,9.5-6.9c1.8-1.2-7.4,9.5-8.2,10.2s-1.7,0.1-3-1.2c-1.3-1.3-1.5-1.2-3.9-0.3
		c-2.4,0.9-4.6,2.1-5.4,3.5c-0.8,1.3-0.8,2.8-0.8,2.8s-1.5-2.9,1.2-5.3c2.7-2.4,4.9-3.5,6.4-6.1c1.5-2.5,1.4-3.3,4.9-5.5
		c3.5-2.2,4.1-1.9,8.1-5.1c4-3.1,8.1-6.3,12.1-6.9c4-0.6,14-1.8,27.6-4.6c13.6-2.8,17.5-5.1,31.6-9.1c14.2-4,19.7-4.4,19.7-4.4
		s-3.4-1.5-11.7-2c-8.3-0.5-10-3.1-10-3.1s4.6-5.3,8.5-7.5c3.9-2.3,7.9-5,10.9-6.2c3-1.2,8.2,0.1,8.2,0.1s0.6-3-4.2-4.5
		c-4.8-1.5-7.5-1.6-10.6,0.8c-3.1,2.3-8.4,5.7-8.4,5.7s5.4-4.6,6.7-6c1.3-1.4,4.4-2.5,5.9-3.4c1.5-0.8,1.8-2.2,1.8-2.2
		s-3.6,2.5-6.7,2.5h-4.5c0,0,1.1-2.5,3.8-5.5c2.7-3,4.1-2.5,4.1-2.5s0.6-2.3-1-3.1c-1.6-0.8-7.9,4.8-7.8,4.6
		c0.1-0.1,2.8-4.6,4.2-6.1c1.4-1.4,0.5-4.6-1-6.1c-1.5-1.6-4.6-2.5-7.5-1.1c-2.9,1.4-5.7,2.9-5.7,2.9s5.4-4.1,7.8-4.6
		c0,0-3.7-0.4-6.1,0.5c-2.5,0.9-5.8,3.1-5.8,3.1s4.4-4.4,8.5-5.2c4-0.8,7.3,2.2,7.3,2.2s0.9-2-1.7-3.1c-2.6-1.1-5.3-0.8-7.4-0.7
		c-2.1,0.2-5.8,2.3-5.8,2.3s3.2-2.5,4.6-3.1c0,0-2.6-1.4-4.1-1.4c-1.5,0-7.6,2.9-7.6,2.9s2.7-3,4.5-3.8c1.8-0.8,3.7-1,3.7-1
		s-2.5-0.4-4,0c-1.4,0.4-3.1,0.8-3.1,0.8s1.5-2.3,4.3-2.5c2.8-0.2,5.7,0.4,5.7,0.4l-1.4-1c0,0,1.9-0.1,4.1,2.1c0,0-1.7-0.1-2.8-0.1
		c0,0,2.5,0.4,4.3,1.1s3.5,2.5,3.5,2.5s-1.6-3.1-2.5-4.2c-0.8-1.1-1.6-2.9-3.1-3.8c-1.5-0.9-5.2-0.8-5.2-0.8s1.7-1,2.7-1
		c1,0,2.6,1.4,2.6,1.4s-0.9-2.8-2.4-3.8c-1.5-1-1.6-1.6-3.8-3.1c-2.1-1.5-7.8,0.1-7.8,0.1s1.4-1.2,1.6-1.6c0.1-0.5-3.1-1.1-3.1-1.1
		s0.4-1.4,1.8-1.3s3.6,1.6,3.6,1.6s-0.5-3.4-3.6-3.7c-3.1-0.2-3.2-0.2-6,1.9c-2.8,2.1-4.4,3.1-4.4,3.1s1.1-2.9,2.7-4.6
		c1.6-1.7,5-1,5-1s-2.7-2.5-4.9-3.2c-2.2-0.7-3.9,1.5-7.1,1c-3.2-0.5-4.6-3.1-4.6-3.1s1.9,1.9,3.6,1.5c1.6-0.4,3.4-1.1,3.4-1.1
		s-3.8-1.6-5.8-1.8s-2.3,0.1-3.1-1.2c-0.8-1.4-1.9-3.1-4.7-3.1c-2.8,0-4.6,0.7-4.6,0.7s2.3,1.3,4.3,2.6l2,1.3c0,0-2.2-0.2-2.8,0.1
		c-0.6,0.3-1.6,2.2-1.6,2c-0.1-0.2-1.2-3-2.6-4.7c-1.4-1.7-3.6-3.7-5.4-4.5c-1.8-0.8-2.9-1.6-2.9-1.6s2.4,4.3,2.4,6.9
		c0,2.6-3.6,13.6-3.6,13.6s-1.2-20.3-1.9-23.8c-0.7-3.4-0.7-4.5-0.7-4.5s1.6-2.3,3.3-4c1.7-1.7,2.1-6.7,2.2-9.3
		c0.1-2.6,0.5-9.1-1-10c-1.5-0.9-3.9,2.4-3.9,2.4s0-1.2,1.1-2.6c1.1-1.3,1.3-1.9,1.3-1.9s-0.2-5.5,0.8-7.1c0.9-1.6-0.2-6.9,0.5-8.8
		c0.8-1.9,0.6-3.1-0.2-5.2c-0.8-2.1-2.7-3.4-2.7-3.4l2.7,1.4c0,0-0.7-1.4-2.2-5.2c-1.5-3.8-3.1-4.6-3.1-4.6s2.5,0.7,3.5,1.8
		s1,0.8,1,0.8s-0.5-1.6-1.8-3.7c-1.3-2-2.7-3.6-4.4-3.2l-1.7,0.4c0,0-0.1-1.9,1.4-2.2c1.5-0.3,3.2,0,3.2,0s-1.8-1.8-3.3-2.1
		c-1.4-0.3-2.8,1.4-2.8,1.4s-0.1-2.6-0.1-3.1s-2.3-2-2.3-2s0.8,2.2,0.4,2.4s-2.7,0.3-3.3-1.1c-0.6-1.4,0.3-2.8,0.3-2.8s-1.3-0.5-3,0
		c-1.7,0.5-3.3,0.8-3.3,0.8s-0.9-2.5-2.4-3.3c-1.5-0.8-5.8,0.8-5.8,0.8s1.8,0.3,2,0.8c0.1,0.5-2.2,1.4-3.4,0.6c-1.2-0.8,1-3.2,1-3.2
		s-3.7-1.5-5.1,1.4c0,0-2-1.2-3.4,0.3s-3.3,1.6-3.3,1.6s-2.3-0.7-3.8-0.1s-2.5,1.9-2.5,1.9l2.8-0.8c0,0-0.3,2-2.2,1.7
		c-1.9-0.3-3.4-1-4.9-0.3c-1.5,0.8-2.9,3.8-2.9,3.7s1.4,0.6,0.3,1.2c-1,0.6-4.5,0.4-4.5,0.4s-3.9,3.8-3.9,5.5v1.6
		c0-0.1,2.6-2.7,2.6-2.7s0.5,3.9-1.5,4.8s-3.8,1.2-4,2.6c-0.2,1.4-0.2,4.1-0.2,4.1s1.9-3,2.4-3c0.5,0-0.6,2.5-0.6,2.5
		s-2.7,2.6-3,4.1s0,1.4,0.4,4.2c0.4,2.9,1.3,8.9,1.8,11.9c0.5,3,1.5,8.5,1.5,8.5s-0.5,5.1-0.7,7c-0.1,2,0.9,2.9,1.3,4.9
		c0.4,2,0.2,4.1,0.4,6c0,0.2,0.1,0.5,0.2,0.8l-0.1,0.1l0.6,5.1c-0.4,0.4-1.4,1.3-2.7,1.7c-1.8,0.6-4.8,0.4-4.8,0.4s2.6,1.3,3.8,1.3
		s3-1.3,3-1.3s-0.8,1.7-1.6,2.2c-0.8,0.5-1.6,0.1-3.7-0.2c-2.2-0.3-5.4,3.2-5.4,3.2s1.5-3,2.3-3.7l0.8-0.7c0,0-2.2,0.9-3.8,2.7
		c-1.6,1.8-4.8,6.1-5.8,10c-1.1,3.8-1.2,7.8-1.2,7.8s-0.6-1.9-0.4-4c0.1-2,0.7-3.9,0.7-3.9s-4.7,7.5-5.5,10.4
		c-0.8,2.9-1.2,3.7-1.3,5.8c-0.1,2.2-0.1,5.3-0.1,5.3s0.6-3.3,1.3-4.8l0.7-1.5c0,0-0.6,1.1-0.4,3.1l0.2,2c0,0,0.2-3,1.3-5.3
		c1.1-2.3,2.3-3.8,2.3-3.8s-0.4,5.8,0.1,9.4c0.5,3.5,1.4,6.8,1.4,6.8l-2.1-2.3c0,0,0.1,2.2,0.8,4.7c0.8,2.6,1.6,4.3,1.6,4.3
		s-2.5-2.8-3.6-5.2l-1.1-2.4c0,0-0.4,3.8-0.4,5.8c0.1,2,0.8,5.6,0.8,5.6s-2.2-7.3-3.4-10.8c-1.1-3.5-1-8.5-0.4-10.4
		c0,0-1.4,1.4-2,4.1c-0.7,2.6-0.7,6.4-0.7,6.4s-2.9-2.3-3.7-4.1c-0.8-1.9-0.8-2.5-0.8-2.5s-2,0.5-3.7,3.9c-1.7,3.4-9,5.9-11.4,7.2
		c-2.4,1.3-9.9,8-9.9,8l6.6-3.4c0,0-7.6,9.2-13.3,14c-5.7,4.8-25.1,18.5-25.1,18.5l5.6-1.4c0,0-4.2,2.6-8.3,4.1
		c-4.1,1.5-9.4,4-11.2,5.2c-1.9,1.2-3.3,1.9-3.3,1.9s8-1.8,11-1.5c3,0.3,4,2.4,4.8,2.5c0.8,0.1,3.5-1.3,3.5-1.3s-2.8,1.9-2.8,3.7
		c0,1.7,0.1,3.9,0.1,3.9s-0.4-1.7-1.6-3c0,0,0.4,1.7,0.4,2.8c0,1-2.3-0.2-3.2,0c-0.9,0.1-2.2,1-2.2,1s1.1,0.5,2.5,0.8
		c1.4,0.3-0.5,1.9-1.9,2.5c-1.5,0.5-0.3,1.9-0.3,1.9s-1.4-0.6-1.9-0.6c-0.6,0-1.4,0.9-1.4,0.9s1.2,0.2,1.6,1.1s-2,0.9-3,1.5
		c-1,0.6-1.1,1.9-1.1,1.9s1.6-0.9,2.4-0.7s-1.5,1.8-1.5,1.8s-1-0.3-1.4-0.3s-0.1-3.1,0.5-3.9c0.7-0.8,2.6-2.9,3.1-4.4
		c0.5-1.4-1.1-2.7-1.1-2.7s1.6-1.5,2.5-3.1c1-1.6,1.7-2.5-1.7-2.6c-3.4-0.1-8.2,1.8-8.2,1.8l2-1.5c0,0-4.3,0.9-6.2,1.5
		c-1.9,0.6-3.1,1.9-3.1,1.9s0.5-1.9,2.3-2.9c0,0-2.4,1.1-3,1.4c-0.6,0.3,0.5-1.6,0.5-1.6s-2.4,1.1-2.7,2.2c-0.3,1.1-1.5,3.9-1.5,3.9
		s-0.6-1.2,0-2.5l0.6-1.3c0,0-2.5,0.8-3.5,1.7c-1,1-0.5,3.7-0.5,4.6s1.8-0.8,1.8-0.8s-0.8,2.8-1.7,5.1c-0.9,2.2-1.8,5-2.2,5.7
		c-0.4,0.7-1.9,0.4-2.3,0.7c-0.4,0.2,0-2.3,0-2.3s-2.1,2.9-2.2,4s3.1,7.9,3.7,9.1c0.6,1.1,1.6,2,2.4,2.9c0.8,0.9,1.3,1.6,1.8,1.8
		c0.5,0.2,1.6,0.2,1.6,0.2s1.4,1.8,2.5,2.1c1.1,0.3,3-1.3,3-2.5c0-1.2-0.7-2.6-0.7-2.6l-2-0.3c0,0,1.7-0.2,2.3-1.3
		c0.5-1,0.6-3.4,0.6-3.4s0.6-1.8,0-3.3c-0.6-1.5-1.3-2.2-1.3-2.2l1.1,0.8c0,0,0.2-1.5-0.1-3.4c-0.3-1.9-1-2.5-1-2.5l1.5,0.8
		c0,0,3.7-0.7,6.1-1.5c2.5-0.8,3.9-1.3,3.9-1.3s-0.5,4.1,1.5,5.3c2,1.2,3,1.3,4.9-0.2c1.9-1.5,3.9-5.7,3.9-5.7s3.9-1.5,5-4.5
		c1.1-3,0.7-5.9,0.7-5.9s5.6-4.3,10.8-6.7l5.2-2.4l-6.4,4.5c0,0,20.3-9,31.6-15c11.3-5.9,19.3-12.2,21.7-14.3l2.4-2.1
		c0,0-4-3.8-3.7-6.3c0,0,4,5.8,6.8,6.9c2.8,1,6.7,0.8,9.7-1.6c3-2.4,5-3.1,5-3.1s-4-6.3-4.6-8.7c-0.6-2.4,3.3-16.3,3.3-16.3
		s0.4,13.3,2.6,19.7c2.2,6.4,3.8,9.7,3.8,9.7l-4.4-6.7c0,0,3.4,8.6,5,13.3c1.6,4.7,9.1,22,9.1,22l-4.5-5.7c0,0,1.6,8.9,2.1,13.8
		s0.5,6,0.5,6s-5.9,0.5-8.3,1.9l-2.4,1.4c0,0,9.2-3.4,16-1.9c6.7,1.6,11.8,3.8,16.3,8.5s5.1,5.7,5.1,5.7l-0.6,2.8l-1.6-2.6
		c0,0-4.1-6.1-11.8-9.7c-7.7-3.5-14.2-3.7-19.9-3c-5.6,0.7-9.4,4.4-10,9.6c-0.7,5.2-1.2,13.9,6.9,25.6c8.1,11.6,22.9,22.4,34.4,16.7
		c0,0-0.9-1.5-0.9-2.7c0-1.2-0.5-2.9-1.4-6.4c-0.9-3.5-1.4-8-1.4-8s1.5,1.3,1.5,2.6c0,1.3,0.4,3.6,0.7,5.2c0.3,1.6,1,5.8,1.9,6.6
		c0.9,0.8,3.1,1.3,2.3,2.1c-0.8,0.8-1.5,0.8-1.5,0.8s1.9,0,2.7-0.9c0.8-0.9,1.1-1.9,1.1-1.9s2.4-3,2.5-3.7c0.1-0.8-0.2-3.3-0.2-3.3
		l0.6,0.4l0.4,2.7l0.5-2.4l1,0.4c0,0-0.6,2.8-1.3,3.4c-0.8,0.6-2.3,1.8-2.3,1.8s2.5-1.2,3.6-2.7c1.1-1.5,1.1-2.1,1.1-2.1
		s1.3,0.2,2.3-0.1c0,0,3.6,1.3,4.1,1.3s1-0.6,1-0.6s1.3,1,2.9,1c1.6,0,4-1.3,5-2.3c0,0-1.1,0.7-2.5,0.7c-1.3,0,0.1-1.5,1-2.1
		c0.9-0.6,2.1-0.6,2.1-0.2v1.2l2-1.7l0.9-0.9c0,0,2.3,0.6,3.6,0.3c1.3-0.3,3.4-2.3,3.4-2.3s-3.1,1.5-3.9,1.5c-0.8,0-1.4-1.6-1.6-3.7
		c-0.2-2.2,1.4-3.3,1.4-3.3l1,5.1l-0.1-5.4l1,1.2l0.6,4.3l0.3-4.5c0,0,0.8,0.5,1,1.5c0.3,1,0.2,2.6,0.2,2.6s1.3-1.3,0.5-3.3
		c-0.8-2-2.4-3.8-2.4-3.8s0.7-2.3,0.5-4c-0.2-1.7-1.4-2.7-1.4-2.7s3.8-1,7.8-1c4,0,11-0.1,17.4-0.4c6.4-0.3,12.2,0.6,25.3,0.2
		c13.1-0.4,17.1-1.9,17.1-1.9l-6,0.5c0,0,2-0.6,12-3s14.8-3.4,16.5-4c1.6-0.7,4.5-1.5,6.3-4.6C414.8,325.5,413.8,318.6,413.1,315.4"
		/>
	<path class="st2" d="M212,324.3c-4.8,0-8.6,3.9-8.6,8.6c0,4.8,3.9,8.6,8.6,8.6c4.8,0,8.6-3.9,8.6-8.6
		C220.6,328.2,216.7,324.3,212,324.3"/>
</g>
</svg>
